<svg xmlns="http://www.w3.org/2000/svg" width="520.343" height="520.343" style="enable-background:new 0 0 520.343 520.343" xml:space="preserve">
  <path d="M411.487 0H108.855C102.174 0 96.75 5.423 96.75 12.105v411.578c0 6.68 5.423 12.105 12.105 12.105 6.683 0 12.105-5.426 12.105-12.105V24.211h278.421v8.697l-127.105 92.279v395.155l127.791-92.781c1.631 4.764 6.1 8.222 11.42 8.222 6.679 0 12.104-5.42 12.104-12.105V12.1c.001-6.683-5.425-12.1-12.104-12.1zm-91.191 331.973c-5.704 0-10.462-7.046-11.691-16.485h-13.631v-10.592h13.825c1.448-8.86 6.012-15.38 11.497-15.38 6.632 0 12.005 9.498 12.005 21.231.006 11.721-5.373 21.226-12.005 21.226z"/>
</svg>