<svg xmlns="http://www.w3.org/2000/svg" viewBox="0 0 457.32 457.32" style="enable-background:new 0 0 457.32 457.32" xml:space="preserve">
  <path d="M228.66 112.692c-63.945 0-115.968 52.022-115.968 115.967s52.023 115.968 115.968 115.968 115.968-52.023 115.968-115.968c0-63.944-52.023-115.967-115.968-115.967z"/>
  <path d="m401.429 228.66 42.467-57.07c2.903-3.9 3.734-8.966 2.232-13.59a15.0029 15.0029 0 0 0-9.794-9.683l-67.901-21.209.811-71.132c.056-4.862-2.249-9.449-6.182-12.307-3.934-2.858-9.009-3.633-13.615-2.077l-67.399 22.753-41.153-58.023A14.9993 14.9993 0 0 0 228.66 0c-4.862 0-9.422 2.356-12.235 6.322l-41.154 58.024-67.4-22.753c-4.607-1.555-9.682-.781-13.615 2.077s-6.238 7.445-6.182 12.307l.812 71.132-67.901 21.209a14.9993 14.9993 0 0 0-9.793 9.683 14.9972 14.9972 0 0 0 2.232 13.59l42.467 57.07-42.467 57.07c-2.903 3.9-3.734 8.966-2.232 13.59 1.502 4.624 5.153 8.233 9.793 9.683l67.901 21.208-.812 71.132c-.056 4.862 2.249 9.449 6.182 12.307a15.0033 15.0033 0 0 0 13.615 2.077l67.4-22.753 41.154 58.024a14.9993 14.9993 0 0 0 12.235 6.322c4.862 0 9.422-2.356 12.235-6.322l41.154-58.024 67.399 22.753c4.606 1.555 9.681.781 13.615-2.077 3.933-2.858 6.238-7.445 6.182-12.306l-.811-71.133 67.901-21.208a15.0029 15.0029 0 0 0 9.794-9.683c1.502-4.624.671-9.689-2.232-13.59l-42.468-57.071zM228.66 374.627c-80.487 0-145.968-65.481-145.968-145.968S148.173 82.692 228.66 82.692s145.968 65.48 145.968 145.967-65.481 145.968-145.968 145.968z"/>
</svg>