<svg xmlns="http://www.w3.org/2000/svg" viewBox="0 0 512 512" style="enable-background:new 0 0 512 512" xml:space="preserve">
  <path style="fill:#fff" d="M7.286 178.07h497.43v155.86H7.286z"/>
  <path style="fill:#3db4ea" d="M7.286 7.286h497.43v170.78H7.286z"/>
  <path style="fill:#fff" d="M193.949 117.081c-4.347 0-7.884 3.537-7.884 7.884s3.537 7.884 7.884 7.884 7.883-3.537 7.883-7.884-3.536-7.884-7.883-7.884zM263.499 117.081c-4.347 0-7.884 3.537-7.884 7.884s3.537 7.884 7.884 7.884 7.883-3.537 7.883-7.884-3.536-7.884-7.883-7.884zM228.724 117.081c-4.347 0-7.884 3.537-7.884 7.884s3.537 7.884 7.884 7.884 7.883-3.537 7.883-7.884-3.536-7.884-7.883-7.884zM263.499 76.117c4.347 0 7.883-3.537 7.883-7.884s-3.536-7.884-7.883-7.884c-4.347 0-7.884 3.537-7.884 7.884s3.537 7.884 7.884 7.884zM159.174 117.081c-4.347 0-7.884 3.537-7.884 7.884s3.537 7.884 7.884 7.884 7.883-3.537 7.883-7.884-3.536-7.884-7.883-7.884zM193.949 88.416c-4.347 0-7.884 3.537-7.884 7.884s3.537 7.884 7.884 7.884 7.883-3.537 7.883-7.884-3.536-7.884-7.883-7.884zM228.724 88.416c-4.347 0-7.884 3.537-7.884 7.884s3.537 7.884 7.884 7.884 7.883-3.537 7.883-7.884-3.536-7.884-7.883-7.884zM193.949 60.349c-4.347 0-7.884 3.537-7.884 7.884s3.537 7.884 7.884 7.884 7.883-3.537 7.883-7.884-3.536-7.884-7.883-7.884zM228.724 60.349c-4.347 0-7.884 3.537-7.884 7.884s3.537 7.884 7.884 7.884 7.883-3.537 7.883-7.884-3.536-7.884-7.883-7.884zM159.174 88.416c-4.347 0-7.884 3.537-7.884 7.884s3.537 7.884 7.884 7.884 7.883-3.537 7.883-7.884-3.536-7.884-7.883-7.884zM124.398 117.081c-4.347 0-7.884 3.537-7.884 7.884s3.537 7.884 7.884 7.884 7.883-3.537 7.883-7.884c.001-4.347-3.535-7.884-7.883-7.884zM263.499 88.416c-4.347 0-7.884 3.537-7.884 7.884s3.537 7.884 7.884 7.884 7.883-3.537 7.883-7.884-3.536-7.884-7.883-7.884z"/>
  <path style="fill:#259245" d="M7.286 333.93h497.43v170.78H7.286z"/>
  <path style="fill:#b21727" d="M504.714 341.217H7.286c-4.025 0-7.286-3.262-7.286-7.286s3.262-7.287 7.286-7.287h497.427c4.025 0 7.286 3.262 7.286 7.287s-3.261 7.286-7.285 7.286zM504.714 185.356H7.286c-4.025 0-7.286-3.262-7.286-7.287s3.262-7.286 7.286-7.286h497.427c4.025 0 7.286 3.262 7.286 7.286s-3.261 7.287-7.285 7.287z"/>
  <path d="M504.714 512h-33.162c-4.025 0-7.286-3.262-7.286-7.286s3.262-7.287 7.286-7.287h25.876V14.573H14.573v482.854H438.39c4.025 0 7.287 3.262 7.287 7.287S442.415 512 438.39 512H7.286C3.262 512 0 508.738 0 504.714V7.286C0 3.262 3.262 0 7.286 0h497.427C508.738 0 512 3.262 512 7.286v497.427c0 4.025-3.262 7.287-7.286 7.287z"/>
  <path style="fill:#fff" d="M90.22 132.55c-19.824 0-35.952-16.128-35.952-35.951S70.397 60.648 90.22 60.648c4.025 0 7.286 3.262 7.286 7.287s-3.262 7.286-7.286 7.286c-11.788 0-21.379 9.59-21.379 21.378s9.59 21.378 21.379 21.378c4.025 0 7.286 3.262 7.286 7.286.001 4.025-3.261 7.287-7.286 7.287z"/>
</svg>